<svg width="130" height="79" viewBox="0 0 130 79" fill="none" xmlns="http://www.w3.org/2000/svg">
<path d="M97.44 65.664C97.44 62.976 97.888 59.52 98.784 55.296C99.68 51.072 100.864 46.56 102.336 41.76C98.112 42.08 93.856 42.496 89.568 43.008C85.344 43.52 81.664 43.808 78.528 43.872C75.648 50.592 73.344 56.8 71.616 62.496C69.952 68.128 68.64 73.632 67.68 79.008C65.248 78.432 63.232 77.408 61.632 75.936C60.032 74.528 58.56 72.736 57.216 70.56C57.728 69.536 58.304 68.224 58.944 66.624C59.648 65.024 60.448 63.104 61.344 60.864C62.304 58.56 63.36 55.904 64.512 52.896C65.728 49.824 67.104 46.272 68.64 42.24C66.528 41.344 65.12 40.096 64.416 38.496C64.736 38.24 65.44 37.984 66.528 37.728C67.68 37.408 69.088 37.088 70.752 36.768L72 33.696C73.344 30.24 74.432 27.328 75.264 24.96C76.16 22.592 76.896 20.288 77.472 18.048C78.112 15.744 78.688 13.216 79.2 10.464C79.776 7.71199 80.448 4.22399 81.216 -9.53674e-06C83.904 0.511992 86.336 1.69599 88.512 3.55199C90.752 5.40799 92.672 7.64799 94.272 10.272C93.696 11.04 92.992 12.192 92.16 13.728C91.328 15.264 90.4 17.12 89.376 19.296C88.416 21.408 87.36 23.808 86.208 26.496C85.056 29.12 83.808 31.904 82.464 34.848C86.432 34.336 90.432 33.856 94.464 33.408C98.56 32.96 102.176 32.64 105.312 32.448C106.464 29.12 107.648 25.888 108.864 22.752C110.144 19.552 111.392 16.64 112.608 14.016C113.824 11.392 114.976 9.08799 116.064 7.10399C117.216 5.11999 118.24 3.64799 119.136 2.68799C119.776 2.75199 120.608 3.00799 121.632 3.45599C122.72 3.83999 123.808 4.31999 124.896 4.89599C125.984 5.47199 126.976 6.11199 127.872 6.81599C128.768 7.45599 129.376 8.06399 129.696 8.63999C128.544 9.72799 127.392 11.136 126.24 12.864C125.088 14.592 123.936 16.576 122.784 18.816C121.696 21.056 120.608 23.488 119.52 26.112C118.432 28.736 117.408 31.456 116.448 34.272C117.728 35.424 118.368 36.864 118.368 38.592C118.368 39.808 118.112 40.928 117.6 41.952C117.024 41.824 116.448 41.76 115.872 41.76C115.296 41.696 114.688 41.632 114.048 41.568C112.96 45.024 111.968 48.448 111.072 51.84C110.176 55.232 109.408 58.464 108.768 61.536C108.192 64.608 107.712 67.424 107.328 69.984C107.008 72.544 106.848 74.688 106.848 76.416C106.848 77.056 106.848 77.568 106.848 77.952C106.912 78.336 106.976 78.656 107.04 78.912C105.632 78.848 104.608 78.592 103.968 78.144C103.328 77.76 102.848 77.312 102.528 76.8C102.208 76.352 101.92 75.872 101.664 75.36C101.408 74.912 100.992 74.56 100.416 74.304C99.968 74.112 99.552 73.664 99.168 72.96C98.784 72.256 98.464 71.456 98.208 70.56C97.952 69.664 97.76 68.768 97.632 67.872C97.504 66.976 97.44 66.24 97.44 65.664Z" fill="#FFAC3E"/>
<path d="M62.592 6.52799C62.784 7.61599 62.912 8.38399 62.976 8.83199C63.104 9.21599 63.168 9.75999 63.168 10.464C63.168 12.576 62.688 14.56 61.728 16.416C60.832 18.208 59.584 19.488 57.984 20.256C56.704 18.528 55.136 17.056 53.28 15.84C51.424 14.56 49.376 13.536 47.136 12.768C44.96 11.936 42.688 11.328 40.32 10.944C37.952 10.56 35.648 10.368 33.408 10.368C31.168 10.368 29.056 10.56 27.072 10.944C25.152 11.264 23.424 11.744 21.888 12.384C20.416 12.96 19.232 13.696 18.336 14.592C17.504 15.488 17.088 16.512 17.088 17.664C17.28 19.072 18.144 20.512 19.68 21.984C21.216 23.392 23.104 24.8 25.344 26.208C27.584 27.552 30.048 28.896 32.736 30.24C35.488 31.584 38.176 32.864 40.8 34.08C44.064 35.616 46.88 37.056 49.248 38.4C51.616 39.68 53.568 41.12 55.104 42.72C56.64 44.256 57.792 46.016 58.56 48C59.328 49.984 59.712 52.384 59.712 55.2C59.712 58.464 59.168 61.536 58.08 64.416C56.992 67.232 55.392 69.696 53.28 71.808C51.232 73.92 48.736 75.552 45.792 76.704C42.848 77.92 39.552 78.528 35.904 78.528C32.32 78.528 28.448 77.984 24.288 76.896C20.128 75.808 16.224 74.304 12.576 72.384C8.99196 70.528 5.98396 68.384 3.55196 65.952C1.18396 63.456 -4.45843e-05 60.832 -4.45843e-05 58.08C-4.45843e-05 56.8 0.351955 55.168 1.05596 53.184C1.82396 51.2 3.16796 49.12 5.08796 46.944C5.27996 48.864 6.30396 51.136 8.15996 53.76C10.08 56.384 12.928 58.816 16.704 61.056C20.224 63.104 23.84 64.608 27.552 65.568C31.328 66.464 34.848 66.912 38.112 66.912C41.696 66.912 44.608 66.464 46.848 65.568C49.088 64.672 50.848 63.616 52.128 62.4C53.408 61.12 54.304 59.84 54.816 58.56C55.328 57.28 55.616 56.256 55.68 55.488C55.616 54.208 55.008 52.992 53.856 51.84C52.768 50.624 51.264 49.472 49.344 48.384C47.488 47.232 45.312 46.08 42.816 44.928C40.32 43.776 37.728 42.624 35.04 41.472C31.008 39.68 27.52 38.016 24.576 36.48C21.696 34.88 19.296 33.28 17.376 31.68C15.52 30.016 14.144 28.288 13.248 26.496C12.416 24.704 12 22.656 12 20.352C12 16.768 13.088 13.376 15.264 10.176C17.44 6.97599 20.576 4.54399 24.672 2.87999C26.72 1.98399 28.896 1.34399 31.2 0.95999C33.568 0.575991 35.872 0.383991 38.112 0.383991C42.336 0.383991 46.464 0.959991 50.496 2.11199C54.528 3.26399 58.56 4.73599 62.592 6.52799Z" fill="#15B44C"/>
</svg>
