<svg width="488" height="115" viewBox="0 0 488 115" fill="none" xmlns="http://www.w3.org/2000/svg">
<path d="M62.592 14.976C62.784 16.064 62.912 16.832 62.976 17.28C63.104 17.664 63.168 18.208 63.168 18.912C63.168 21.024 62.688 23.008 61.728 24.864C60.832 26.656 59.584 27.936 57.984 28.704C56.704 26.976 55.136 25.504 53.28 24.288C51.424 23.008 49.376 21.984 47.136 21.216C44.96 20.384 42.688 19.776 40.32 19.392C37.952 19.008 35.648 18.816 33.408 18.816C31.168 18.816 29.056 19.008 27.072 19.392C25.152 19.712 23.424 20.192 21.888 20.832C20.416 21.408 19.232 22.144 18.336 23.04C17.504 23.936 17.088 24.96 17.088 26.112C17.28 27.52 18.144 28.96 19.68 30.432C21.216 31.84 23.104 33.248 25.344 34.656C27.584 36 30.048 37.344 32.736 38.688C35.488 40.032 38.176 41.312 40.8 42.528C44.064 44.064 46.88 45.504 49.248 46.848C51.616 48.128 53.568 49.568 55.104 51.168C56.64 52.704 57.792 54.464 58.56 56.448C59.328 58.432 59.712 60.832 59.712 63.648C59.712 66.912 59.168 69.984 58.08 72.864C56.992 75.68 55.392 78.144 53.28 80.256C51.232 82.368 48.736 84 45.792 85.152C42.848 86.368 39.552 86.976 35.904 86.976C32.32 86.976 28.448 86.432 24.288 85.344C20.128 84.256 16.224 82.752 12.576 80.832C8.99196 78.976 5.98396 76.832 3.55196 74.4C1.18396 71.904 -4.45843e-05 69.28 -4.45843e-05 66.528C-4.45843e-05 65.248 0.351955 63.616 1.05596 61.632C1.82396 59.648 3.16796 57.568 5.08796 55.392C5.27996 57.312 6.30396 59.584 8.15996 62.208C10.08 64.832 12.928 67.264 16.704 69.504C20.224 71.552 23.84 73.056 27.552 74.016C31.328 74.912 34.848 75.36 38.112 75.36C41.696 75.36 44.608 74.912 46.848 74.016C49.088 73.12 50.848 72.064 52.128 70.848C53.408 69.568 54.304 68.288 54.816 67.008C55.328 65.728 55.616 64.704 55.68 63.936C55.616 62.656 55.008 61.44 53.856 60.288C52.768 59.072 51.264 57.92 49.344 56.832C47.488 55.68 45.312 54.528 42.816 53.376C40.32 52.224 37.728 51.072 35.04 49.92C31.008 48.128 27.52 46.464 24.576 44.928C21.696 43.328 19.296 41.728 17.376 40.128C15.52 38.464 14.144 36.736 13.248 34.944C12.416 33.152 12 31.104 12 28.8C12 25.216 13.088 21.824 15.264 18.624C17.44 15.424 20.576 12.992 24.672 11.328C26.72 10.432 28.896 9.79199 31.2 9.40799C33.568 9.02399 35.872 8.83199 38.112 8.83199C42.336 8.83199 46.464 9.40799 50.496 10.56C54.528 11.712 58.56 13.184 62.592 14.976ZM70.2487 42.912C69.9287 42.528 69.6407 41.728 69.3847 40.512C69.1287 39.232 69.0007 38.144 69.0007 37.248C70.6647 37.376 72.2647 37.504 73.8007 37.632C75.3367 37.696 76.7447 37.76 78.0247 37.824C78.9847 35.904 80.0087 34.016 81.0967 32.16C82.2487 30.24 83.3367 28.512 84.3607 26.976C85.4487 25.376 86.4407 24.032 87.3367 22.944C88.2967 21.856 89.0327 21.152 89.5447 20.832C90.1847 20.832 90.9847 20.96 91.9447 21.216C92.9687 21.408 93.9927 21.696 95.0167 22.08C96.0407 22.4 96.9687 22.752 97.8007 23.136C98.6327 23.52 99.2087 23.904 99.5287 24.288C97.6087 26.72 95.9447 28.992 94.5367 31.104C93.1927 33.152 91.7207 35.52 90.1207 38.208C91.4007 38.208 92.6807 38.176 93.9607 38.112C95.3047 38.048 96.6487 37.952 97.9927 37.824C98.3127 38.144 98.5687 38.56 98.7607 39.072C98.9527 39.52 99.0487 40 99.0487 40.512C95.9127 41.664 92.1047 42.304 87.6247 42.432C86.0247 45.504 84.5847 48.576 83.3047 51.648C82.0887 54.656 81.0327 57.568 80.1367 60.384C79.3047 63.2 78.6327 65.856 78.1207 68.352C77.6727 70.848 77.4487 73.088 77.4487 75.072C77.4487 77.888 78.5047 79.456 80.6167 79.776C82.5367 79.52 84.3607 79.04 86.0887 78.336C87.8167 77.632 89.3527 76.736 90.6967 75.648C91.0807 76.224 91.3047 76.704 91.3687 77.088C90.9847 77.664 90.3127 78.336 89.3527 79.104C88.4567 79.872 87.4647 80.608 86.3767 81.312C85.2887 82.08 84.2327 82.72 83.2087 83.232C82.1847 83.744 81.4167 84.032 80.9047 84.096C79.3047 84.032 77.7047 83.68 76.1047 83.04C74.5047 82.4 73.0327 81.6 71.6887 80.64C70.4087 79.68 69.3527 78.624 68.5207 77.472C67.6887 76.256 67.2727 75.072 67.2727 73.92C67.2727 72.384 67.4647 70.464 67.8487 68.16C68.2967 65.792 68.9047 63.232 69.6727 60.48C70.4407 57.728 71.3367 54.848 72.3607 51.84C73.3847 48.832 74.5047 45.856 75.7207 42.912H70.2487ZM131.455 40.896C132.095 40.896 132.831 41.024 133.663 41.28C134.559 41.472 135.359 41.76 136.063 42.144C136.767 42.464 137.343 42.816 137.791 43.2C138.303 43.584 138.559 43.936 138.559 44.256C137.279 46.944 136.095 49.664 135.007 52.416C133.919 55.104 132.991 57.696 132.223 60.192C131.455 62.688 130.847 65.024 130.399 67.2C130.015 69.376 129.823 71.264 129.823 72.864C129.823 74.656 130.015 76.16 130.399 77.376C130.783 78.528 131.423 79.36 132.319 79.872C131.551 80.384 130.559 80.8 129.343 81.12C128.127 81.44 127.039 81.6 126.079 81.6C122.623 81.6 120.895 79.232 120.895 74.496C120.895 70.848 122.111 65.856 124.543 59.52C123.263 62.464 121.791 65.248 120.127 67.872C118.463 70.432 116.767 72.704 115.039 74.688C113.311 76.672 111.551 78.304 109.759 79.584C108.031 80.8 106.431 81.536 104.959 81.792C102.591 81.664 100.671 80.544 99.1987 78.432C97.7267 76.256 96.9907 73.504 96.9907 70.176C96.9907 66.592 97.7587 62.816 99.2947 58.848C100.831 54.88 102.783 51.2 105.151 47.808C107.583 44.416 110.207 41.6 113.023 39.36C115.839 37.056 118.559 35.84 121.183 35.712C121.823 35.904 122.527 36.288 123.295 36.864C124.127 37.44 124.895 38.112 125.599 38.88C126.367 39.648 127.007 40.448 127.519 41.28C128.031 42.048 128.319 42.72 128.383 43.296C125.823 43.68 123.167 44.928 120.415 47.04C117.727 49.152 115.263 51.712 113.023 54.72C110.847 57.664 109.055 60.832 107.647 64.224C106.239 67.616 105.535 70.784 105.535 73.728C105.535 74.944 105.983 75.712 106.879 76.032C108.735 75.648 110.879 74.08 113.311 71.328C115.743 68.512 118.687 64.192 122.143 58.368C122.783 57.216 123.487 55.936 124.255 54.528C125.087 53.12 125.919 51.648 126.751 50.112C127.583 48.576 128.383 47.04 129.151 45.504C129.983 43.904 130.751 42.368 131.455 40.896ZM179.149 64.8C177.677 69.472 176.205 73.728 174.733 77.568C173.261 81.408 171.693 84.928 170.029 88.128C168.365 91.392 166.573 94.368 164.653 97.056C162.733 99.808 160.621 102.4 158.317 104.832C155.373 107.904 152.333 110.24 149.197 111.84C146.061 113.504 142.925 114.336 139.789 114.336C138.189 114.336 136.589 114.144 134.989 113.76C133.453 113.44 132.013 112.96 130.669 112.32C129.261 111.744 128.045 111.04 127.021 110.208C125.933 109.44 125.165 108.608 124.717 107.712C124.717 106.944 125.165 106.272 126.061 105.696C126.829 106.4 127.469 106.944 127.981 107.328C128.493 107.712 129.005 108.032 129.517 108.288C129.965 108.544 130.477 108.704 131.053 108.768C131.565 108.832 132.173 108.864 132.877 108.864C136.525 108.864 140.077 107.776 143.533 105.6C147.053 103.488 150.349 100.448 153.421 96.48C156.557 92.576 159.405 87.808 161.965 82.176C164.525 76.608 166.701 70.368 168.493 63.456C167.661 64.736 166.637 66.304 165.421 68.16C164.205 70.016 162.861 71.872 161.389 73.728C159.917 75.52 158.381 77.152 156.781 78.624C155.245 80.096 153.741 81.088 152.269 81.6C151.245 81.536 150.157 81.312 149.005 80.928C147.917 80.608 146.861 80.128 145.837 79.488C144.877 78.848 144.013 78.08 143.245 77.184C142.477 76.288 141.965 75.264 141.709 74.112C141.709 72.256 141.773 70.784 141.901 69.696C142.029 68.544 142.253 67.296 142.573 65.952C143.149 63.52 143.981 60.768 145.069 57.696C146.221 54.624 147.533 51.616 149.005 48.672C150.541 45.664 152.205 42.88 153.997 40.32C155.853 37.696 157.773 35.648 159.757 34.176C160.269 34.176 160.909 34.24 161.677 34.368C162.445 34.432 163.245 34.592 164.077 34.848C164.909 35.104 165.709 35.424 166.477 35.808C167.245 36.128 167.917 36.576 168.493 37.152C167.789 37.792 166.253 39.936 163.885 43.584C161.517 47.232 158.893 52.48 156.013 59.328C155.693 60.032 155.309 61.056 154.861 62.4C154.413 63.744 153.965 65.152 153.517 66.624C153.133 68.096 152.781 69.536 152.461 70.944C152.141 72.352 151.981 73.472 151.981 74.304C151.981 74.816 152.045 75.2 152.173 75.456C152.365 75.712 152.525 75.904 152.653 76.032C153.805 75.84 155.341 74.912 157.261 73.248C159.181 71.52 161.357 68.864 163.789 65.28C165.325 62.976 166.733 60.704 168.013 58.464C169.293 56.16 170.541 53.856 171.757 51.552C173.037 49.248 174.349 46.88 175.693 44.448C177.037 42.016 178.477 39.52 180.013 36.96C180.845 36.96 181.741 37.056 182.701 37.248C183.661 37.44 184.589 37.696 185.485 38.016C186.381 38.272 187.149 38.592 187.789 38.976C188.493 39.296 189.005 39.648 189.325 40.032C187.341 44.256 185.485 48.384 183.757 52.416C182.029 56.448 180.493 60.576 179.149 64.8Z" fill="#5a7a4a"/>
<path d="M226.909 74.112C226.909 71.424 227.357 67.968 228.253 63.744C229.149 59.52 230.333 55.008 231.805 50.208C227.581 50.528 223.325 50.944 219.037 51.456C214.813 51.968 211.133 52.256 207.997 52.32C205.117 59.04 202.813 65.248 201.085 70.944C199.421 76.576 198.109 82.08 197.149 87.456C194.717 86.88 192.701 85.856 191.101 84.384C189.501 82.976 188.029 81.184 186.685 79.008C187.197 77.984 187.773 76.672 188.413 75.072C189.117 73.472 189.917 71.552 190.813 69.312C191.773 67.008 192.829 64.352 193.981 61.344C195.197 58.272 196.573 54.72 198.109 50.688C195.997 49.792 194.589 48.544 193.885 46.944C194.205 46.688 194.909 46.432 195.997 46.176C197.149 45.856 198.557 45.536 200.221 45.216L201.469 42.144C202.813 38.688 203.901 35.776 204.733 33.408C205.629 31.04 206.365 28.736 206.941 26.496C207.581 24.192 208.157 21.664 208.669 18.912C209.245 16.16 209.917 12.672 210.685 8.44799C213.373 8.95999 215.805 10.144 217.981 12C220.221 13.856 222.141 16.096 223.741 18.72C223.165 19.488 222.461 20.64 221.629 22.176C220.797 23.712 219.869 25.568 218.845 27.744C217.885 29.856 216.829 32.256 215.677 34.944C214.525 37.568 213.277 40.352 211.933 43.296C215.901 42.784 219.901 42.304 223.933 41.856C228.029 41.408 231.645 41.088 234.781 40.896C235.933 37.568 237.117 34.336 238.333 31.2C239.613 28 240.861 25.088 242.077 22.464C243.293 19.84 244.445 17.536 245.533 15.552C246.685 13.568 247.709 12.096 248.605 11.136C249.245 11.2 250.077 11.456 251.101 11.904C252.189 12.288 253.277 12.768 254.365 13.344C255.453 13.92 256.445 14.56 257.341 15.264C258.237 15.904 258.845 16.512 259.165 17.088C258.013 18.176 256.861 19.584 255.709 21.312C254.557 23.04 253.405 25.024 252.253 27.264C251.165 29.504 250.077 31.936 248.989 34.56C247.901 37.184 246.877 39.904 245.917 42.72C247.197 43.872 247.837 45.312 247.837 47.04C247.837 48.256 247.581 49.376 247.069 50.4C246.493 50.272 245.917 50.208 245.341 50.208C244.765 50.144 244.157 50.08 243.517 50.016C242.429 53.472 241.437 56.896 240.541 60.288C239.645 63.68 238.877 66.912 238.237 69.984C237.661 73.056 237.181 75.872 236.797 78.432C236.477 80.992 236.317 83.136 236.317 84.864C236.317 85.504 236.317 86.016 236.317 86.4C236.381 86.784 236.445 87.104 236.509 87.36C235.101 87.296 234.077 87.04 233.437 86.592C232.797 86.208 232.317 85.76 231.997 85.248C231.677 84.8 231.389 84.32 231.133 83.808C230.877 83.36 230.461 83.008 229.885 82.752C229.437 82.56 229.021 82.112 228.637 81.408C228.253 80.704 227.933 79.904 227.677 79.008C227.421 78.112 227.229 77.216 227.101 76.32C226.973 75.424 226.909 74.688 226.909 74.112ZM285.984 39.936C285.728 43.904 285.024 47.328 283.872 50.208C282.72 53.024 281.056 55.52 278.88 57.696C276.768 59.808 274.176 61.728 271.104 63.456C268.032 65.184 264.448 66.848 260.352 68.448C260.352 68.832 260.32 69.248 260.256 69.696C260.256 70.08 260.256 70.496 260.256 70.944C260.256 71.776 260.32 72.64 260.448 73.536C260.576 74.432 260.8 75.264 261.12 76.032C261.44 76.8 261.888 77.44 262.464 77.952C263.04 78.4 263.776 78.624 264.672 78.624C266.4 78.624 268.096 78.24 269.76 77.472C271.424 76.704 272.992 75.776 274.464 74.688C276 73.536 277.408 72.32 278.688 71.04C280.032 69.696 281.216 68.48 282.24 67.392C282.88 67.968 283.424 68.512 283.872 69.024C280.992 72.864 277.824 76.064 274.368 78.624C270.976 81.12 267.744 82.72 264.672 83.424C260.256 82.912 256.8 81.312 254.304 78.624C251.872 75.872 250.656 72.576 250.656 68.736C250.656 66.112 251.008 63.456 251.712 60.768C252.48 58.016 253.504 55.392 254.784 52.896C256.128 50.336 257.664 47.936 259.392 45.696C261.184 43.456 263.072 41.504 265.056 39.84C267.104 38.176 269.184 36.864 271.296 35.904C273.472 34.944 275.616 34.464 277.728 34.464C280.672 34.848 283.424 36.672 285.984 39.936ZM279.36 43.104C277.632 43.36 275.84 44.064 273.984 45.216C272.128 46.368 270.368 47.904 268.704 49.824C267.104 51.744 265.632 53.984 264.288 56.544C262.944 59.104 261.888 61.856 261.12 64.8C266.24 62.24 270.496 59.104 273.888 55.392C277.28 51.616 279.104 47.52 279.36 43.104ZM323.548 40.896C324.188 40.896 324.924 41.024 325.756 41.28C326.652 41.472 327.452 41.76 328.156 42.144C328.86 42.464 329.436 42.816 329.884 43.2C330.396 43.584 330.652 43.936 330.652 44.256C329.372 46.944 328.188 49.664 327.1 52.416C326.012 55.104 325.084 57.696 324.316 60.192C323.548 62.688 322.94 65.024 322.492 67.2C322.108 69.376 321.916 71.264 321.916 72.864C321.916 74.656 322.108 76.16 322.492 77.376C322.876 78.528 323.516 79.36 324.412 79.872C323.644 80.384 322.652 80.8 321.436 81.12C320.22 81.44 319.132 81.6 318.172 81.6C314.716 81.6 312.988 79.232 312.988 74.496C312.988 70.848 314.204 65.856 316.636 59.52C315.356 62.464 313.884 65.248 312.22 67.872C310.556 70.432 308.86 72.704 307.132 74.688C305.404 76.672 303.644 78.304 301.852 79.584C300.124 80.8 298.524 81.536 297.052 81.792C294.684 81.664 292.764 80.544 291.292 78.432C289.82 76.256 289.084 73.504 289.084 70.176C289.084 66.592 289.852 62.816 291.388 58.848C292.924 54.88 294.876 51.2 297.244 47.808C299.676 44.416 302.3 41.6 305.116 39.36C307.932 37.056 310.652 35.84 313.276 35.712C313.916 35.904 314.62 36.288 315.388 36.864C316.22 37.44 316.988 38.112 317.692 38.88C318.46 39.648 319.1 40.448 319.612 41.28C320.124 42.048 320.412 42.72 320.476 43.296C317.916 43.68 315.26 44.928 312.508 47.04C309.82 49.152 307.356 51.712 305.116 54.72C302.94 57.664 301.148 60.832 299.74 64.224C298.332 67.616 297.628 70.784 297.628 73.728C297.628 74.944 298.076 75.712 298.972 76.032C300.828 75.648 302.972 74.08 305.404 71.328C307.836 68.512 310.78 64.192 314.236 58.368C314.876 57.216 315.58 55.936 316.348 54.528C317.18 53.12 318.012 51.648 318.844 50.112C319.676 48.576 320.476 47.04 321.244 45.504C322.076 43.904 322.844 42.368 323.548 40.896ZM335.426 73.536C335.426 70.72 336.098 66.784 337.442 61.728C338.786 56.608 340.674 50.656 343.106 43.872C347.074 33.056 350.786 24.064 354.242 16.896C357.762 9.66399 361.186 4.03199 364.514 -1.14441e-05C365.282 0.127987 366.21 0.447987 367.298 0.959988C368.45 1.47199 369.57 2.04799 370.658 2.68799C371.746 3.26399 372.706 3.87199 373.538 4.51199C374.434 5.15199 375.01 5.66399 375.266 6.04799C370.274 11.936 365.89 18.272 362.114 25.056C358.338 31.84 354.882 39.616 351.746 48.384C349.058 55.936 347.01 62.752 345.602 68.832C344.194 74.848 343.49 79.872 343.49 83.904C343.49 84.992 343.49 85.664 343.49 85.92C343.49 86.176 343.522 86.432 343.586 86.688C342.69 86.56 341.922 86.336 341.282 86.016C340.642 85.696 340.226 85.312 340.034 84.864C339.906 84.544 339.554 84.064 338.978 83.424C338.402 82.848 337.89 82.4 337.442 82.08C336.866 81.696 336.386 80.704 336.002 79.104C335.618 77.44 335.426 75.584 335.426 73.536ZM363.874 42.912C363.554 42.528 363.266 41.728 363.01 40.512C362.754 39.232 362.626 38.144 362.626 37.248C364.29 37.376 365.89 37.504 367.426 37.632C368.962 37.696 370.37 37.76 371.65 37.824C372.61 35.904 373.634 34.016 374.722 32.16C375.874 30.24 376.962 28.512 377.986 26.976C379.074 25.376 380.066 24.032 380.962 22.944C381.922 21.856 382.658 21.152 383.17 20.832C383.81 20.832 384.61 20.96 385.57 21.216C386.594 21.408 387.618 21.696 388.642 22.08C389.666 22.4 390.594 22.752 391.426 23.136C392.258 23.52 392.834 23.904 393.154 24.288C391.234 26.72 389.57 28.992 388.162 31.104C386.818 33.152 385.346 35.52 383.746 38.208C385.026 38.208 386.306 38.176 387.586 38.112C388.93 38.048 390.274 37.952 391.618 37.824C391.938 38.144 392.194 38.56 392.386 39.072C392.578 39.52 392.674 40 392.674 40.512C389.538 41.664 385.73 42.304 381.25 42.432C379.65 45.504 378.21 48.576 376.93 51.648C375.714 54.656 374.658 57.568 373.762 60.384C372.93 63.2 372.258 65.856 371.746 68.352C371.298 70.848 371.074 73.088 371.074 75.072C371.074 77.888 372.13 79.456 374.242 79.776C376.162 79.52 377.986 79.04 379.714 78.336C381.442 77.632 382.978 76.736 384.322 75.648C384.706 76.224 384.93 76.704 384.994 77.088C384.61 77.664 383.938 78.336 382.978 79.104C382.082 79.872 381.09 80.608 380.002 81.312C378.914 82.08 377.858 82.72 376.834 83.232C375.81 83.744 375.042 84.032 374.53 84.096C372.93 84.032 371.33 83.68 369.73 83.04C368.13 82.4 366.658 81.6 365.314 80.64C364.034 79.68 362.978 78.624 362.146 77.472C361.314 76.256 360.898 75.072 360.898 73.92C360.898 72.384 361.09 70.464 361.474 68.16C361.922 65.792 362.53 63.232 363.298 60.48C364.066 57.728 364.962 54.848 365.986 51.84C367.01 48.832 368.13 45.856 369.346 42.912H363.874ZM391.864 78.048C391.864 75.808 392.088 73.184 392.536 70.176C392.984 67.104 393.624 63.84 394.456 60.384C395.352 56.928 396.376 53.312 397.528 49.536C398.744 45.76 400.088 41.984 401.56 38.208C402.84 34.816 404.312 31.392 405.976 27.936C407.704 24.48 409.56 21.088 411.544 17.76C413.528 14.432 415.576 11.264 417.688 8.25599C419.864 5.24799 422.04 2.49599 424.216 -1.14441e-05C425.24 -1.14441e-05 426.328 0.127989 427.48 0.383989C428.696 0.63999 429.848 0.991989 430.936 1.43999C432.088 1.82399 433.112 2.30399 434.008 2.87999C434.968 3.45599 435.736 4.03199 436.312 4.60799C431.512 9.53599 427.192 14.528 423.352 19.584C419.512 24.576 416.472 29.28 414.232 33.696C413.016 36.128 411.896 38.4 410.872 40.512C409.912 42.624 409.016 44.736 408.184 46.848C407.352 48.896 406.584 50.976 405.88 53.088C405.24 55.136 404.632 57.312 404.056 59.616C416.344 43.936 425.464 36.096 431.416 36.096C433.08 36.096 434.872 36.64 436.792 37.728C438.712 38.816 440.408 40.288 441.88 42.144C439.896 44.32 437.848 46.944 435.736 50.016C433.624 53.088 431.672 56.192 429.88 59.328C428.152 62.4 426.712 65.28 425.56 67.968C424.472 70.592 423.928 72.544 423.928 73.824C423.928 74.464 424.024 74.912 424.216 75.168C424.408 75.36 424.824 75.456 425.464 75.456C426.424 75.456 427.192 75.328 427.768 75.072C428.344 74.816 428.696 74.688 428.824 74.688C429.144 75.2 429.336 75.552 429.4 75.744C429.464 75.936 429.496 76.096 429.496 76.224C429.496 76.48 429.112 76.864 428.344 77.376C427.576 77.824 426.648 78.304 425.56 78.816C424.536 79.264 423.512 79.68 422.488 80.064C421.464 80.448 420.696 80.64 420.184 80.64C419.544 80.64 418.904 80.448 418.264 80.064C417.624 79.744 417.048 79.296 416.536 78.72C416.088 78.144 415.704 77.504 415.384 76.8C415.128 76.096 415 75.36 415 74.592C415 73.632 415.256 72.224 415.768 70.368C416.344 68.448 417.112 66.24 418.072 63.744C419.032 61.184 420.184 58.4 421.528 55.392C422.872 52.384 424.312 49.312 425.848 46.176C425.848 45.92 425.72 45.792 425.464 45.792C425.272 45.792 424.76 46.048 423.928 46.56C423.16 47.072 422.424 47.584 421.72 48.096C419.416 49.824 417.08 51.968 414.712 54.528C412.408 57.024 410.136 59.776 407.896 62.784C405.72 65.792 403.64 68.992 401.656 72.384C399.736 75.712 398.072 79.072 396.664 82.464C396.472 82.912 396.184 83.328 395.8 83.712C395.416 84.096 395.096 84.288 394.84 84.288C394.648 84.288 394.36 84.064 393.976 83.616C393.656 83.168 393.336 82.592 393.016 81.888C392.76 81.248 392.504 80.576 392.248 79.872C391.992 79.168 391.864 78.56 391.864 78.048ZM477.649 64.8C476.177 69.472 474.705 73.728 473.233 77.568C471.761 81.408 470.193 84.928 468.529 88.128C466.865 91.392 465.073 94.368 463.153 97.056C461.233 99.808 459.121 102.4 456.817 104.832C453.873 107.904 450.833 110.24 447.697 111.84C444.561 113.504 441.425 114.336 438.289 114.336C436.689 114.336 435.089 114.144 433.489 113.76C431.953 113.44 430.513 112.96 429.169 112.32C427.761 111.744 426.545 111.04 425.521 110.208C424.433 109.44 423.665 108.608 423.217 107.712C423.217 106.944 423.665 106.272 424.561 105.696C425.329 106.4 425.969 106.944 426.481 107.328C426.993 107.712 427.505 108.032 428.017 108.288C428.465 108.544 428.977 108.704 429.553 108.768C430.065 108.832 430.673 108.864 431.377 108.864C435.025 108.864 438.577 107.776 442.033 105.6C445.553 103.488 448.849 100.448 451.921 96.48C455.057 92.576 457.905 87.808 460.465 82.176C463.025 76.608 465.201 70.368 466.993 63.456C466.161 64.736 465.137 66.304 463.921 68.16C462.705 70.016 461.361 71.872 459.889 73.728C458.417 75.52 456.881 77.152 455.281 78.624C453.745 80.096 452.241 81.088 450.769 81.6C449.745 81.536 448.657 81.312 447.505 80.928C446.417 80.608 445.361 80.128 444.337 79.488C443.377 78.848 442.513 78.08 441.745 77.184C440.977 76.288 440.465 75.264 440.209 74.112C440.209 72.256 440.273 70.784 440.401 69.696C440.529 68.544 440.753 67.296 441.073 65.952C441.649 63.52 442.481 60.768 443.569 57.696C444.721 54.624 446.033 51.616 447.505 48.672C449.041 45.664 450.705 42.88 452.497 40.32C454.353 37.696 456.273 35.648 458.257 34.176C458.769 34.176 459.409 34.24 460.177 34.368C460.945 34.432 461.745 34.592 462.577 34.848C463.409 35.104 464.209 35.424 464.977 35.808C465.745 36.128 466.417 36.576 466.993 37.152C466.289 37.792 464.753 39.936 462.385 43.584C460.017 47.232 457.393 52.48 454.513 59.328C454.193 60.032 453.809 61.056 453.361 62.4C452.913 63.744 452.465 65.152 452.017 66.624C451.633 68.096 451.281 69.536 450.961 70.944C450.641 72.352 450.481 73.472 450.481 74.304C450.481 74.816 450.545 75.2 450.673 75.456C450.865 75.712 451.025 75.904 451.153 76.032C452.305 75.84 453.841 74.912 455.761 73.248C457.681 71.52 459.857 68.864 462.289 65.28C463.825 62.976 465.233 60.704 466.513 58.464C467.793 56.16 469.041 53.856 470.257 51.552C471.537 49.248 472.849 46.88 474.193 44.448C475.537 42.016 476.977 39.52 478.513 36.96C479.345 36.96 480.241 37.056 481.201 37.248C482.161 37.44 483.089 37.696 483.985 38.016C484.881 38.272 485.649 38.592 486.289 38.976C486.993 39.296 487.505 39.648 487.825 40.032C485.841 44.256 483.985 48.384 482.257 52.416C480.529 56.448 478.993 60.576 477.649 64.8Z" fill="#3A7A5A"/>
</svg>
