<svg width="628" height="105" viewBox="0 0 628 105" fill="none" xmlns="http://www.w3.org/2000/svg">
<path d="M59.3438 58.4531C59.3438 61.3594 58.9688 63.9219 58.2188 66.1406C57.5 68.3594 56.4688 70.2812 55.125 71.9062C53.8125 73.5312 52.25 74.8906 50.4375 75.9844C48.625 77.0781 46.6406 77.9531 44.4844 78.6094C42.3594 79.2656 40.0938 79.7344 37.6875 80.0156C35.3125 80.2969 32.8906 80.4375 30.4219 80.4375C27.1719 80.4375 24.1719 80.1875 21.4219 79.6875C18.6719 79.2188 16.0781 78.4688 13.6406 77.4375C11.2344 76.375 8.90625 75.0156 6.65625 73.3594C4.4375 71.7031 2.21875 69.6875 0 67.3125L9.5625 57.6094C10.4375 59.7656 11.6406 61.7656 13.1719 63.6094C14.7031 65.4219 16.375 66.9844 18.1875 68.2969C20.0312 69.6094 21.9375 70.6406 23.9062 71.3906C25.875 72.1406 27.7344 72.5156 29.4844 72.5156C31.5469 72.5156 33.4844 72.375 35.2969 72.0938C37.1094 71.7812 38.6875 71.2812 40.0312 70.5938C41.375 69.9062 42.4219 69 43.1719 67.875C43.9531 66.7188 44.3438 65.2812 44.3438 63.5625C44.3438 62.25 44.0469 61.125 43.4531 60.1875C42.8594 59.25 42.0781 58.4531 41.1094 57.7969C40.1719 57.1094 39.0938 56.5312 37.875 56.0625C36.6562 55.5938 35.4062 55.2031 34.125 54.8906C32.875 54.5469 31.6406 54.25 30.4219 54C29.2031 53.7188 28.125 53.4375 27.1875 53.1562C25.3438 52.625 23.4219 52.0625 21.4219 51.4688C19.4219 50.8438 17.4531 50.1406 15.5156 49.3594C13.5781 48.5781 11.7344 47.6875 9.98438 46.6875C8.26562 45.6562 6.75 44.4531 5.4375 43.0781C4.125 41.6719 3.07812 40.0625 2.29688 38.25C1.51562 36.4062 1.125 34.2969 1.125 31.9219C1.125 29.0781 1.46875 26.5625 2.15625 24.375C2.875 22.1563 3.875 20.2344 5.15625 18.6094C6.4375 16.9844 7.95312 15.625 9.70312 14.5312C11.4531 13.4062 13.375 12.5156 15.4688 11.8594C17.5625 11.1719 19.7812 10.6875 22.125 10.4062C24.5 10.0937 26.9219 9.9375 29.3906 9.9375C32.7656 9.9375 35.8281 10.25 38.5781 10.875C41.3594 11.5 43.9219 12.3906 46.2656 13.5469C48.6094 14.7031 50.75 16.0937 52.6875 17.7188C54.6562 19.3125 56.5 21.0938 58.2188 23.0625L48.6562 32.7656C47.9062 30.5156 46.8594 28.4844 45.5156 26.6719C44.2031 24.8594 42.7344 23.3125 41.1094 22.0312C39.4844 20.7188 37.7812 19.7188 36 19.0312C34.2188 18.3125 32.5 17.9531 30.8438 17.9531C28.6875 17.9531 26.7031 18.1094 24.8906 18.4219C23.0781 18.7031 21.5156 19.1875 20.2031 19.875C18.9219 20.5312 17.9219 21.4375 17.2031 22.5938C16.4844 23.7188 16.125 25.125 16.125 26.8125C16.125 28.1563 16.3906 29.2969 16.9219 30.2344C17.4531 31.1719 18.1562 31.9688 19.0312 32.625C19.9375 33.2812 20.9531 33.8281 22.0781 34.2656C23.2031 34.6719 24.3594 35.0312 25.5469 35.3438C26.7656 35.6562 27.9531 35.9375 29.1094 36.1875C30.2969 36.4062 31.375 36.6562 32.3438 36.9375C34.2188 37.4688 36.1875 38.0312 38.25 38.625C40.3125 39.2188 42.3438 39.9219 44.3438 40.7344C46.3438 41.5156 48.25 42.4219 50.0625 43.4531C51.875 44.4844 53.4688 45.7188 54.8438 47.1562C56.2188 48.5625 57.3125 50.2031 58.125 52.0781C58.9375 53.9219 59.3438 56.0469 59.3438 58.4531ZM89.5781 79.0781H73.6875V31.2188H63.8438V24.9375H73.6875V5.01562H89.5781V24.9375H105.984V31.2188H89.5781V79.0781ZM166.078 79.0781H150.234V72.6094C148.359 75.1719 146.094 77.0781 143.438 78.3281C140.812 79.5469 137.922 80.1562 134.766 80.1562C130.641 80.1562 126.953 79.4219 123.703 77.9531C120.453 76.4844 117.703 74.4844 115.453 71.9531C113.203 69.3906 111.484 66.3906 110.297 62.9531C109.109 59.5156 108.516 55.8281 108.516 51.8906C108.516 47.9531 109.109 44.2656 110.297 40.8281C111.484 37.3906 113.203 34.4062 115.453 31.875C117.703 29.3125 120.453 27.2969 123.703 25.8281C126.953 24.3594 130.641 23.625 134.766 23.625C136.859 23.625 138.844 23.9375 140.719 24.5625C142.625 25.1875 144.359 26.0781 145.922 27.2344C147.516 28.3594 148.906 29.7344 150.094 31.3594C151.312 32.9531 152.266 34.7344 152.953 36.7031L159.984 24.9375H166.078V79.0781ZM150.141 51.8906C150.141 50.4844 150.062 49 149.906 47.4375C149.781 45.875 149.547 44.3281 149.203 42.7969C148.859 41.2656 148.375 39.8125 147.75 38.4375C147.156 37.0312 146.375 35.7969 145.406 34.7344C144.469 33.6406 143.328 32.7812 141.984 32.1562C140.641 31.5312 139.078 31.2188 137.297 31.2188C135.516 31.2188 133.969 31.5469 132.656 32.2031C131.344 32.8281 130.219 33.6875 129.281 34.7812C128.344 35.8438 127.562 37.0781 126.938 38.4844C126.344 39.8906 125.875 41.3594 125.531 42.8906C125.188 44.4219 124.938 45.9688 124.781 47.5312C124.656 49.0625 124.594 50.5156 124.594 51.8906C124.594 53.2656 124.656 54.7344 124.781 56.2969C124.938 57.8594 125.188 59.4062 125.531 60.9375C125.875 62.4688 126.344 63.9375 126.938 65.3438C127.562 66.75 128.344 68 129.281 69.0938C130.219 70.1562 131.344 71.0156 132.656 71.6719C133.969 72.2969 135.516 72.6094 137.297 72.6094C138.922 72.6094 140.359 72.2812 141.609 71.625C142.891 70.9375 144 70.0312 144.938 68.9062C145.906 67.7812 146.719 66.5 147.375 65.0625C148.031 63.625 148.562 62.1406 148.969 60.6094C149.375 59.0781 149.672 57.5625 149.859 56.0625C150.047 54.5312 150.141 53.1406 150.141 51.8906ZM227.812 24.9375L208.125 72.5625C205.875 78 203.359 83.375 200.578 88.6875C197.828 94.0312 194.844 99.1562 191.625 104.062L185.438 100.312C186.219 98.9062 187.141 97.2812 188.203 95.4375C189.266 93.5938 190.312 91.6875 191.344 89.7188C192.375 87.75 193.328 85.7969 194.203 83.8594C195.078 81.9531 195.75 80.2031 196.219 78.6094L172.547 24.9375H188.391L204.469 61.5469L216.844 24.9375H227.812Z" fill="#FFAC3E"/>
<path d="M254.109 79.0781H235.5V11.5781H254.109V41.0625H278.766V11.5781H297.375V79.0781H278.766V49.6406H254.109V79.0781ZM323.625 53.3906C325.562 53.8281 327.5 54.1719 329.438 54.4219C331.375 54.6719 333.328 54.7969 335.297 54.7969C337.359 54.7969 339.266 54.6094 341.016 54.2344C342.797 53.8281 344.328 53.1719 345.609 52.2656C346.922 51.3281 347.953 50.0938 348.703 48.5625C349.453 47.0312 349.828 45.125 349.828 42.8438C349.828 41 349.578 39.3125 349.078 37.7812C348.578 36.25 347.828 34.9375 346.828 33.8438C345.859 32.75 344.656 31.9062 343.219 31.3125C341.781 30.6875 340.109 30.375 338.203 30.375C336.422 30.375 334.812 30.7031 333.375 31.3594C331.969 32.0156 330.719 32.9062 329.625 34.0312C328.562 35.125 327.641 36.4062 326.859 37.875C326.109 39.3438 325.484 40.875 324.984 42.4688C324.484 44.0625 324.125 45.6719 323.906 47.2969C323.688 48.9219 323.578 50.4531 323.578 51.8906C323.578 52.1406 323.578 52.3906 323.578 52.6406C323.578 52.8906 323.594 53.1406 323.625 53.3906ZM362.672 42.7031C362.672 44.9219 362.312 46.9062 361.594 48.6562C360.875 50.375 359.891 51.8906 358.641 53.2031C357.422 54.5156 356 55.625 354.375 56.5312C352.75 57.4375 351.016 58.1875 349.172 58.7812C347.328 59.3438 345.422 59.75 343.453 60C341.516 60.25 339.625 60.375 337.781 60.375C335.438 60.375 333.125 60.2188 330.844 59.9062C328.562 59.5625 326.312 59.0312 324.094 58.3125C324.438 60.375 324.984 62.3438 325.734 64.2188C326.484 66.0625 327.484 67.6875 328.734 69.0938C329.984 70.4688 331.516 71.5625 333.328 72.375C335.172 73.1875 337.344 73.5938 339.844 73.5938C341.5 73.5938 343.078 73.3438 344.578 72.8438C346.078 72.3438 347.453 71.6406 348.703 70.7344C349.953 69.8281 351.047 68.75 351.984 67.5C352.953 66.25 353.734 64.8594 354.328 63.3281L361.172 65.8594C360.141 68.3281 358.719 70.4688 356.906 72.2812C355.125 74.0625 353.094 75.5469 350.812 76.7344C348.562 77.8906 346.156 78.75 343.594 79.3125C341.062 79.875 338.547 80.1562 336.047 80.1562C331.922 80.1562 328.109 79.4688 324.609 78.0938C321.109 76.6875 318.094 74.7344 315.562 72.2344C313.031 69.7344 311.047 66.75 309.609 63.2812C308.172 59.8125 307.453 56.0156 307.453 51.8906C307.453 47.7656 308.172 43.9688 309.609 40.5C311.047 37.0312 313.031 34.0469 315.562 31.5469C318.094 29.0469 321.109 27.1094 324.609 25.7344C328.109 24.3281 331.922 23.625 336.047 23.625C338.047 23.625 340.094 23.7656 342.188 24.0469C344.281 24.3281 346.312 24.7813 348.281 25.4062C350.25 26 352.109 26.7812 353.859 27.75C355.609 28.7188 357.125 29.9219 358.406 31.3594C359.719 32.7656 360.75 34.4062 361.5 36.2812C362.281 38.1562 362.672 40.2969 362.672 42.7031ZM427.078 79.0781H411.234V72.6094C409.359 75.1719 407.094 77.0781 404.438 78.3281C401.812 79.5469 398.922 80.1562 395.766 80.1562C391.641 80.1562 387.953 79.4219 384.703 77.9531C381.453 76.4844 378.703 74.4844 376.453 71.9531C374.203 69.3906 372.484 66.3906 371.297 62.9531C370.109 59.5156 369.516 55.8281 369.516 51.8906C369.516 47.9531 370.109 44.2656 371.297 40.8281C372.484 37.3906 374.203 34.4062 376.453 31.875C378.703 29.3125 381.453 27.2969 384.703 25.8281C387.953 24.3594 391.641 23.625 395.766 23.625C397.859 23.625 399.844 23.9375 401.719 24.5625C403.625 25.1875 405.359 26.0781 406.922 27.2344C408.516 28.3594 409.906 29.7344 411.094 31.3594C412.312 32.9531 413.266 34.7344 413.953 36.7031L420.984 24.9375H427.078V79.0781ZM411.141 51.8906C411.141 50.4844 411.062 49 410.906 47.4375C410.781 45.875 410.547 44.3281 410.203 42.7969C409.859 41.2656 409.375 39.8125 408.75 38.4375C408.156 37.0312 407.375 35.7969 406.406 34.7344C405.469 33.6406 404.328 32.7812 402.984 32.1562C401.641 31.5312 400.078 31.2188 398.297 31.2188C396.516 31.2188 394.969 31.5469 393.656 32.2031C392.344 32.8281 391.219 33.6875 390.281 34.7812C389.344 35.8438 388.562 37.0781 387.938 38.4844C387.344 39.8906 386.875 41.3594 386.531 42.8906C386.188 44.4219 385.938 45.9688 385.781 47.5312C385.656 49.0625 385.594 50.5156 385.594 51.8906C385.594 53.2656 385.656 54.7344 385.781 56.2969C385.938 57.8594 386.188 59.4062 386.531 60.9375C386.875 62.4688 387.344 63.9375 387.938 65.3438C388.562 66.75 389.344 68 390.281 69.0938C391.219 70.1562 392.344 71.0156 393.656 71.6719C394.969 72.2969 396.516 72.6094 398.297 72.6094C399.922 72.6094 401.359 72.2812 402.609 71.625C403.891 70.9375 405 70.0312 405.938 68.9062C406.906 67.7812 407.719 66.5 408.375 65.0625C409.031 63.625 409.562 62.1406 409.969 60.6094C410.375 59.0781 410.672 57.5625 410.859 56.0625C411.047 54.5312 411.141 53.1406 411.141 51.8906ZM456.188 79.0781H440.344V0H446.438L456.188 16.4531V79.0781ZM489.797 79.0781H473.906V31.2188H464.062V24.9375H473.906V5.01562H489.797V24.9375H506.203V31.2188H489.797V79.0781ZM568.922 48.0469C568.922 51.7031 568.469 55.5156 567.562 59.4844C566.688 63.4531 565.453 67.3438 563.859 71.1562C562.266 74.9688 560.359 78.5469 558.141 81.8906C555.922 85.2656 553.484 88.1719 550.828 90.6094L544.875 87.375C545.719 85.8125 546.516 84.0625 547.266 82.125C548.016 80.1875 548.688 78.1406 549.281 75.9844C549.906 73.7969 550.453 71.5469 550.922 69.2344C551.422 66.9219 551.828 64.6406 552.141 62.3906C552.484 60.1094 552.734 57.9062 552.891 55.7812C553.078 53.625 553.172 51.625 553.172 49.7812C553.172 48.5625 553.125 47.2656 553.031 45.8906C552.938 44.4844 552.734 43.0938 552.422 41.7188C552.141 40.3125 551.75 38.9688 551.25 37.6875C550.75 36.4062 550.078 35.2812 549.234 34.3125C548.422 33.3438 547.422 32.5625 546.234 31.9688C545.078 31.375 543.703 31.0781 542.109 31.0781C540.547 31.0781 539.156 31.4375 537.938 32.1562C536.719 32.8438 535.641 33.7656 534.703 34.9219C533.766 36.0469 532.953 37.3438 532.266 38.8125C531.609 40.2812 531.062 41.7969 530.625 43.3594C530.219 44.8906 529.922 46.4062 529.734 47.9062C529.547 49.4062 529.453 50.75 529.453 51.9375V79.0781H513.562V5.01562H529.406V32.9062C531.438 29.9375 533.922 27.6562 536.859 26.0625C539.828 24.4375 543.109 23.625 546.703 23.625C550.453 23.625 553.719 24.2344 556.5 25.4531C559.281 26.6719 561.594 28.375 563.438 30.5625C565.281 32.7188 566.656 35.2969 567.562 38.2969C568.469 41.2656 568.922 44.5156 568.922 48.0469ZM627.188 24.9375L607.5 72.5625C605.25 78 602.734 83.375 599.953 88.6875C597.203 94.0312 594.219 99.1562 591 104.062L584.812 100.312C585.594 98.9062 586.516 97.2812 587.578 95.4375C588.641 93.5938 589.688 91.6875 590.719 89.7188C591.75 87.75 592.703 85.7969 593.578 83.8594C594.453 81.9531 595.125 80.2031 595.594 78.6094L571.922 24.9375H587.766L603.844 61.5469L616.219 24.9375H627.188Z" fill="#15B44C"/>
</svg>
