<svg width="24" height="24" viewBox="0 0 24 24" fill="none" xmlns="http://www.w3.org/2000/svg" aria-hidden="true">
  <path d="M19.92 7.02C19.29 7.32 18.61 7.52 17.89 7.6C18.63 7.16 19.2 6.45 19.47 5.61C18.78 6.03 18.01 6.32 17.18 6.48C16.53 5.79 15.6 5.36 14.57 5.36C12.58 5.36 10.98 6.95 10.98 8.9C10.98 9.18 11.01 9.45 11.08 9.7C8.1 9.56 5.47 8.15 3.69 6.01C3.38 6.53 3.21 7.13 3.21 7.78C3.21 9.02 3.85 10.11 4.8 10.75C4.21 10.73 3.66 10.57 3.18 10.31V10.36C3.18 12.08 4.41 13.51 6.05 13.84C5.75 13.92 5.43 13.96 5.1 13.96C4.87 13.96 4.64 13.94 4.42 13.9C4.88 15.31 6.2 16.35 7.77 16.38C6.55 17.31 5.02 17.87 3.36 17.87C3.07 17.87 2.79 17.85 2.5 17.82C4.1 18.84 6.01 19.44 8.05 19.44C14.57 19.44 18.14 14.14 18.14 9.56C18.14 9.4 18.14 9.25 18.13 9.1C18.83 8.61 19.44 8 19.92 7.31V7.02Z" fill="white"/>
</svg>
