<svg width="24" height="24" viewBox="0 0 24 24" fill="none" xmlns="http://www.w3.org/2000/svg" aria-hidden="true">
  <path d="M12 3.25C7.13 3.25 3.25 7.1 3.25 11.88C3.25 13.56 3.73 15.18 4.63 16.58L3.4 20.4L7.35 19.2C8.7 20.02 10.32 20.5 12 20.5C16.87 20.5 20.75 16.65 20.75 11.88C20.75 7.1 16.87 3.25 12 3.25Z" stroke="white" stroke-width="1.8" stroke-linecap="round" stroke-linejoin="round"/>
  <path d="M9.1 9.2C9.1 8.85 8.82 8.57 8.48 8.57H7.74C7.4 8.57 7.12 8.85 7.12 9.2C7.12 12.58 9.88 15.31 13.25 15.31C13.6 15.31 13.88 15.03 13.88 14.69V13.95C13.88 13.61 13.6 13.33 13.25 13.33H12.16C11.88 13.33 11.63 13.5 11.52 13.75L11.33 14.16C10.17 13.68 9.2 12.73 8.73 11.57L9.14 11.38C9.39 11.27 9.56 11.02 9.56 10.74V9.65C9.56 9.31 9.28 9.03 8.94 9.03H9.1V9.2Z" fill="white"/>
</svg>
